<?xml version="1.0" encoding="UTF-8" standalone="no"?>
<!DOCTYPE svg PUBLIC "-//W3C//DTD SVG 1.1//EN" "http://www.w3.org/Graphics/SVG/1.1/DTD/svg11.dtd">
<svg width="100%" height="100%" viewBox="0 0 456 456" version="1.1" xmlns="http://www.w3.org/2000/svg" xmlns:xlink="http://www.w3.org/1999/xlink" xml:space="preserve" xmlns:serif="http://www.serif.com/" style="fill-rule:evenodd;clip-rule:evenodd;stroke-linecap:round;stroke-linejoin:round;stroke-miterlimit:1.5;">
    <g transform="matrix(1,0,0,1,-738.214,-1571.69)">
        <g transform="matrix(-1.11022e-16,1.09029,-1.09029,-1.11022e-16,2874.3,450.848)">
            <rect x="1030.88" y="1544.66" width="411.65" height="411.65" style="stroke:black;stroke-width:5.73px;"/>
        </g>
        <g transform="matrix(0,1.18044,-1.18044,0,2997.02,383.152)">
            <circle cx="1042.18" cy="1560.04" r="18.728" style="fill:rgb(65,65,65);"/>
        </g>
        <g transform="matrix(0,1.18044,-1.18044,0,2997.02,436.56)">
            <circle cx="1042.18" cy="1560.04" r="18.728" style="fill:rgb(65,65,65);"/>
        </g>
        <g transform="matrix(0,1.18044,-1.18044,0,2997.02,489.968)">
            <circle cx="1042.18" cy="1560.04" r="18.728" style="fill:rgb(65,65,65);"/>
        </g>
        <g transform="matrix(0,1.18044,-1.18044,0,2997.02,543.376)">
            <circle cx="1042.18" cy="1560.04" r="18.728" style="fill:rgb(65,65,65);"/>
        </g>
        <g transform="matrix(0,1.18044,-1.18044,0,2997.02,594.609)">
            <circle cx="1042.18" cy="1560.04" r="18.728" style="fill:rgb(65,65,65);"/>
        </g>
        <g transform="matrix(0,1.18044,-1.18044,0,2997.02,648.017)">
            <circle cx="1042.18" cy="1560.04" r="18.728" style="fill:rgb(65,65,65);"/>
        </g>
        <g transform="matrix(0,1.18044,-1.18044,0,2997.02,701.425)">
            <circle cx="1042.18" cy="1560.04" r="18.728" style="fill:rgb(65,65,65);"/>
        </g>
        <g transform="matrix(0,1.18044,-1.18044,0,2997.02,754.834)">
            <circle cx="1042.18" cy="1560.04" r="18.728" style="fill:rgb(65,65,65);"/>
        </g>
        <g transform="matrix(0,1.18044,-1.18044,0,2780.18,383.152)">
            <circle cx="1042.18" cy="1560.04" r="18.728" style="fill:rgb(65,65,65);"/>
        </g>
        <g transform="matrix(0,1.18044,-1.18044,0,2780.18,436.56)">
            <circle cx="1042.18" cy="1560.04" r="18.728" style="fill:rgb(65,65,65);"/>
        </g>
        <g transform="matrix(0,1.18044,-1.18044,0,2780.18,489.968)">
            <circle cx="1042.18" cy="1560.04" r="18.728" style="fill:rgb(237,0,9);"/>
        </g>
        <g transform="matrix(0,1.18044,-1.18044,0,2780.18,543.376)">
            <circle cx="1042.18" cy="1560.04" r="18.728" style="fill:rgb(237,0,9);"/>
        </g>
        <g transform="matrix(0,1.18044,-1.18044,0,2780.18,594.609)">
            <circle cx="1042.18" cy="1560.04" r="18.728" style="fill:rgb(237,0,9);"/>
        </g>
        <g transform="matrix(0,1.18044,-1.18044,0,2780.18,648.017)">
            <circle cx="1042.18" cy="1560.04" r="18.728" style="fill:rgb(237,0,9);"/>
        </g>
        <g transform="matrix(0,1.18044,-1.18044,0,2780.18,701.425)">
            <circle cx="1042.18" cy="1560.04" r="18.728" style="fill:rgb(237,0,9);"/>
        </g>
        <g transform="matrix(0,1.18044,-1.18044,0,2780.18,754.834)">
            <circle cx="1042.18" cy="1560.04" r="18.728" style="fill:rgb(237,0,9);"/>
        </g>
        <g transform="matrix(0,1.18044,-1.18044,0,2888.59,383.152)">
            <circle cx="1042.18" cy="1560.04" r="18.728" style="fill:rgb(237,0,9);"/>
        </g>
        <g transform="matrix(0,1.18044,-1.18044,0,2888.59,436.56)">
            <circle cx="1042.18" cy="1560.04" r="18.728" style="fill:rgb(65,65,65);"/>
        </g>
        <g transform="matrix(0,1.18044,-1.18044,0,2888.59,489.968)">
            <circle cx="1042.18" cy="1560.04" r="18.728" style="fill:rgb(65,65,65);"/>
        </g>
        <g transform="matrix(0,1.18044,-1.18044,0,2888.59,543.376)">
            <circle cx="1042.18" cy="1560.04" r="18.728" style="fill:rgb(237,0,9);"/>
        </g>
        <g transform="matrix(0,1.18044,-1.18044,0,2888.59,594.609)">
            <circle cx="1042.18" cy="1560.04" r="18.728" style="fill:rgb(237,0,9);"/>
        </g>
        <g transform="matrix(0,1.18044,-1.18044,0,2888.59,648.017)">
            <circle cx="1042.18" cy="1560.04" r="18.728" style="fill:rgb(237,0,9);"/>
        </g>
        <g transform="matrix(0,1.18044,-1.18044,0,2888.59,701.425)">
            <circle cx="1042.18" cy="1560.04" r="18.728" style="fill:rgb(237,0,9);"/>
        </g>
        <g transform="matrix(0,1.18044,-1.18044,0,2888.59,754.834)">
            <circle cx="1042.18" cy="1560.04" r="18.728" style="fill:rgb(65,65,65);"/>
        </g>
        <g transform="matrix(0,1.18044,-1.18044,0,2671.75,383.152)">
            <circle cx="1042.18" cy="1560.04" r="18.728" style="fill:rgb(65,65,65);"/>
        </g>
        <g transform="matrix(0,1.18044,-1.18044,0,2671.75,436.56)">
            <circle cx="1042.18" cy="1560.04" r="18.728" style="fill:rgb(65,65,65);"/>
        </g>
        <g transform="matrix(0,1.18044,-1.18044,0,2671.75,489.968)">
            <circle cx="1042.18" cy="1560.04" r="18.728" style="fill:rgb(65,65,65);"/>
        </g>
        <g transform="matrix(0,1.18044,-1.18044,0,2671.75,543.376)">
            <circle cx="1042.18" cy="1560.04" r="18.728" style="fill:rgb(237,0,9);"/>
        </g>
        <g transform="matrix(0,1.18044,-1.18044,0,2671.75,594.609)">
            <circle cx="1042.18" cy="1560.04" r="18.728" style="fill:rgb(237,0,9);"/>
        </g>
        <g transform="matrix(0,1.18044,-1.18044,0,2671.75,648.017)">
            <circle cx="1042.18" cy="1560.04" r="18.728" style="fill:rgb(65,65,65);"/>
        </g>
        <g transform="matrix(0,1.18044,-1.18044,0,2671.75,701.425)">
            <circle cx="1042.18" cy="1560.04" r="18.728" style="fill:rgb(65,65,65);"/>
        </g>
        <g transform="matrix(0,1.18044,-1.18044,0,2671.75,754.834)">
            <circle cx="1042.18" cy="1560.04" r="18.728" style="fill:rgb(65,65,65);"/>
        </g>
        <g transform="matrix(0,1.18044,-1.18044,0,2942.8,383.152)">
            <circle cx="1042.18" cy="1560.04" r="18.728" style="fill:rgb(65,65,65);"/>
        </g>
        <g transform="matrix(0,1.18044,-1.18044,0,2942.8,436.56)">
            <circle cx="1042.18" cy="1560.04" r="18.728" style="fill:rgb(65,65,65);"/>
        </g>
        <g transform="matrix(0,1.18044,-1.18044,0,2942.8,489.968)">
            <circle cx="1042.18" cy="1560.04" r="18.728" style="fill:rgb(65,65,65);"/>
        </g>
        <g transform="matrix(0,1.18044,-1.18044,0,2942.8,543.376)">
            <circle cx="1042.18" cy="1560.04" r="18.728" style="fill:rgb(237,0,9);"/>
        </g>
        <g transform="matrix(0,1.18044,-1.18044,0,2942.8,594.609)">
            <circle cx="1042.18" cy="1560.04" r="18.728" style="fill:rgb(237,0,9);"/>
        </g>
        <g transform="matrix(0,1.18044,-1.18044,0,2942.8,648.017)">
            <circle cx="1042.18" cy="1560.04" r="18.728" style="fill:rgb(65,65,65);"/>
        </g>
        <g transform="matrix(0,1.18044,-1.18044,0,2942.8,701.425)">
            <circle cx="1042.18" cy="1560.04" r="18.728" style="fill:rgb(65,65,65);"/>
        </g>
        <g transform="matrix(0,1.18044,-1.18044,0,2942.8,754.834)">
            <circle cx="1042.18" cy="1560.04" r="18.728" style="fill:rgb(65,65,65);"/>
        </g>
        <g transform="matrix(0,1.18044,-1.18044,0,2725.97,383.152)">
            <circle cx="1042.18" cy="1560.04" r="18.728" style="fill:rgb(65,65,65);"/>
        </g>
        <g transform="matrix(0,1.18044,-1.18044,0,2725.97,436.56)">
            <circle cx="1042.18" cy="1560.04" r="18.728" style="fill:rgb(65,65,65);"/>
        </g>
        <g transform="matrix(0,1.18044,-1.18044,0,2725.97,489.968)">
            <circle cx="1042.18" cy="1560.04" r="18.728" style="fill:rgb(65,65,65);"/>
        </g>
        <g transform="matrix(0,1.18044,-1.18044,0,2725.97,543.376)">
            <circle cx="1042.18" cy="1560.04" r="18.728" style="fill:rgb(237,0,9);"/>
        </g>
        <g transform="matrix(0,1.18044,-1.18044,0,2725.97,594.609)">
            <circle cx="1042.18" cy="1560.04" r="18.728" style="fill:rgb(237,0,9);"/>
        </g>
        <g transform="matrix(0,1.18044,-1.18044,0,2725.97,648.017)">
            <circle cx="1042.18" cy="1560.04" r="18.728" style="fill:rgb(237,0,9);"/>
        </g>
        <g transform="matrix(0,1.18044,-1.18044,0,2725.97,701.425)">
            <circle cx="1042.18" cy="1560.04" r="18.728" style="fill:rgb(237,0,9);"/>
        </g>
        <g transform="matrix(0,1.18044,-1.18044,0,2725.97,754.834)">
            <circle cx="1042.18" cy="1560.04" r="18.728" style="fill:rgb(65,65,65);"/>
        </g>
        <g transform="matrix(0,1.18044,-1.18044,0,2834.38,383.152)">
            <circle cx="1042.18" cy="1560.04" r="18.728" style="fill:rgb(65,65,65);"/>
        </g>
        <g transform="matrix(0,1.18044,-1.18044,0,2834.38,436.56)">
            <circle cx="1042.18" cy="1560.04" r="18.728" style="fill:rgb(237,0,9);"/>
        </g>
        <g transform="matrix(0,1.18044,-1.18044,0,2834.38,489.968)">
            <circle cx="1042.18" cy="1560.04" r="18.728" style="fill:rgb(237,0,9);"/>
        </g>
        <g transform="matrix(0,1.18044,-1.18044,0,2834.38,543.376)">
            <circle cx="1042.18" cy="1560.04" r="18.728" style="fill:rgb(237,0,9);"/>
        </g>
        <g transform="matrix(0,1.18044,-1.18044,0,2834.38,594.609)">
            <circle cx="1042.18" cy="1560.04" r="18.728" style="fill:rgb(237,0,9);"/>
        </g>
        <g transform="matrix(0,1.18044,-1.18044,0,2834.38,648.017)">
            <circle cx="1042.18" cy="1560.04" r="18.728" style="fill:rgb(237,0,9);"/>
        </g>
        <g transform="matrix(0,1.18044,-1.18044,0,2834.38,701.425)">
            <circle cx="1042.18" cy="1560.04" r="18.728" style="fill:rgb(237,0,9);"/>
        </g>
        <g transform="matrix(0,1.18044,-1.18044,0,2834.38,754.834)">
            <circle cx="1042.18" cy="1560.04" r="18.728" style="fill:rgb(237,0,9);"/>
        </g>
        <g transform="matrix(0,1.18044,-1.18044,0,2617.54,383.152)">
            <circle cx="1042.18" cy="1560.04" r="18.728" style="fill:rgb(65,65,65);"/>
        </g>
        <g transform="matrix(0,1.18044,-1.18044,0,2617.54,436.56)">
            <circle cx="1042.18" cy="1560.04" r="18.728" style="fill:rgb(65,65,65);"/>
        </g>
        <g transform="matrix(0,1.18044,-1.18044,0,2617.54,489.968)">
            <circle cx="1042.18" cy="1560.04" r="18.728" style="fill:rgb(65,65,65);"/>
        </g>
        <g transform="matrix(0,1.18044,-1.18044,0,2617.54,543.376)">
            <circle cx="1042.18" cy="1560.04" r="18.728" style="fill:rgb(65,65,65);"/>
        </g>
        <g transform="matrix(0,1.18044,-1.18044,0,2617.54,594.609)">
            <circle cx="1042.18" cy="1560.04" r="18.728" style="fill:rgb(65,65,65);"/>
        </g>
        <g transform="matrix(0,1.18044,-1.18044,0,2617.54,648.017)">
            <circle cx="1042.18" cy="1560.04" r="18.728" style="fill:rgb(65,65,65);"/>
        </g>
        <g transform="matrix(0,1.18044,-1.18044,0,2617.54,701.425)">
            <circle cx="1042.18" cy="1560.04" r="18.728" style="fill:rgb(65,65,65);"/>
        </g>
        <g transform="matrix(0,1.18044,-1.18044,0,2617.54,754.834)">
            <circle cx="1042.18" cy="1560.04" r="18.728" style="fill:rgb(65,65,65);"/>
        </g>
    </g>
</svg>
