<?xml version="1.0" encoding="UTF-8" standalone="no"?>
<!DOCTYPE svg PUBLIC "-//W3C//DTD SVG 1.1//EN" "http://www.w3.org/Graphics/SVG/1.1/DTD/svg11.dtd">
<svg width="100%" height="100%" viewBox="0 0 456 456" version="1.1" xmlns="http://www.w3.org/2000/svg" xmlns:xlink="http://www.w3.org/1999/xlink" xml:space="preserve" xmlns:serif="http://www.serif.com/" style="fill-rule:evenodd;clip-rule:evenodd;stroke-linecap:round;stroke-linejoin:round;stroke-miterlimit:1.5;">
    <g transform="matrix(1,0,0,1,-1834.86,-984.871)">
        <g transform="matrix(-1.11022e-16,1.09029,-1.09029,-1.11022e-16,3970.94,-135.971)">
            <rect x="1030.88" y="1544.66" width="411.65" height="411.65" style="stroke:black;stroke-width:5.73px;"/>
        </g>
        <g transform="matrix(0,1.18044,-1.18044,0,4094.66,-205.667)">
            <circle cx="1042.18" cy="1560.04" r="18.728" style="fill:rgb(65,65,65);"/>
        </g>
        <g transform="matrix(0,1.18044,-1.18044,0,4094.66,-152.259)">
            <circle cx="1042.18" cy="1560.04" r="18.728" style="fill:rgb(65,65,65);"/>
        </g>
        <g transform="matrix(0,1.18044,-1.18044,0,4094.66,-98.8512)">
            <circle cx="1042.18" cy="1560.04" r="18.728" style="fill:rgb(237,0,9);"/>
        </g>
        <g transform="matrix(0,1.18044,-1.18044,0,4094.66,-45.4431)">
            <circle cx="1042.18" cy="1560.04" r="18.728" style="fill:rgb(237,0,9);"/>
        </g>
        <g transform="matrix(0,1.18044,-1.18044,0,4094.66,5.79033)">
            <circle cx="1042.18" cy="1560.04" r="18.728" style="fill:rgb(237,0,9);"/>
        </g>
        <g transform="matrix(0,1.18044,-1.18044,0,4094.66,59.1984)">
            <circle cx="1042.18" cy="1560.04" r="18.728" style="fill:rgb(65,65,65);"/>
        </g>
        <g transform="matrix(0,1.18044,-1.18044,0,4094.66,112.607)">
            <circle cx="1042.18" cy="1560.04" r="18.728" style="fill:rgb(65,65,65);"/>
        </g>
        <g transform="matrix(0,1.18044,-1.18044,0,4094.66,166.015)">
            <circle cx="1042.18" cy="1560.04" r="18.728" style="fill:rgb(65,65,65);"/>
        </g>
        <g transform="matrix(0,1.18044,-1.18044,0,3877.82,-205.667)">
            <circle cx="1042.18" cy="1560.04" r="18.728" style="fill:rgb(65,65,65);"/>
        </g>
        <g transform="matrix(0,1.18044,-1.18044,0,3877.82,-152.259)">
            <circle cx="1042.18" cy="1560.04" r="18.728" style="fill:rgb(237,0,9);"/>
        </g>
        <g transform="matrix(0,1.18044,-1.18044,0,3877.82,-98.8512)">
            <circle cx="1042.18" cy="1560.04" r="18.728" style="fill:rgb(65,65,65);"/>
        </g>
        <g transform="matrix(0,1.18044,-1.18044,0,3877.82,-45.4431)">
            <circle cx="1042.18" cy="1560.04" r="18.728" style="fill:rgb(237,0,9);"/>
        </g>
        <g transform="matrix(0,1.18044,-1.18044,0,3877.82,5.79033)">
            <circle cx="1042.18" cy="1560.04" r="18.728" style="fill:rgb(237,0,9);"/>
        </g>
        <g transform="matrix(0,1.18044,-1.18044,0,3877.82,59.1984)">
            <circle cx="1042.18" cy="1560.04" r="18.728" style="fill:rgb(237,0,9);"/>
        </g>
        <g transform="matrix(0,1.18044,-1.18044,0,3877.82,112.607)">
            <circle cx="1042.18" cy="1560.04" r="18.728" style="fill:rgb(237,0,9);"/>
        </g>
        <g transform="matrix(0,1.18044,-1.18044,0,3877.82,166.015)">
            <circle cx="1042.18" cy="1560.04" r="18.728" style="fill:rgb(65,65,65);"/>
        </g>
        <g transform="matrix(0,1.18044,-1.18044,0,3986.23,-205.667)">
            <circle cx="1042.18" cy="1560.04" r="18.728" style="fill:rgb(65,65,65);"/>
        </g>
        <g transform="matrix(0,1.18044,-1.18044,0,3986.23,-152.259)">
            <circle cx="1042.18" cy="1560.04" r="18.728" style="fill:rgb(237,0,9);"/>
        </g>
        <g transform="matrix(0,1.18044,-1.18044,0,3986.23,-98.8512)">
            <circle cx="1042.18" cy="1560.04" r="18.728" style="fill:rgb(237,0,9);"/>
        </g>
        <g transform="matrix(0,1.18044,-1.18044,0,3986.23,-45.4431)">
            <circle cx="1042.18" cy="1560.04" r="18.728" style="fill:rgb(237,0,9);"/>
        </g>
        <g transform="matrix(0,1.18044,-1.18044,0,3986.23,5.79033)">
            <circle cx="1042.18" cy="1560.04" r="18.728" style="fill:rgb(237,0,9);"/>
        </g>
        <g transform="matrix(0,1.18044,-1.18044,0,3986.23,59.1984)">
            <circle cx="1042.18" cy="1560.04" r="18.728" style="fill:rgb(237,0,9);"/>
        </g>
        <g transform="matrix(0,1.18044,-1.18044,0,3986.23,112.607)">
            <circle cx="1042.18" cy="1560.04" r="18.728" style="fill:rgb(65,65,65);"/>
        </g>
        <g transform="matrix(0,1.18044,-1.18044,0,3986.23,166.015)">
            <circle cx="1042.18" cy="1560.04" r="18.728" style="fill:rgb(65,65,65);"/>
        </g>
        <g transform="matrix(0,1.18044,-1.18044,0,3769.39,-205.667)">
            <circle cx="1042.18" cy="1560.04" r="18.728" style="fill:rgb(65,65,65);"/>
        </g>
        <g transform="matrix(0,1.18044,-1.18044,0,3769.39,-152.259)">
            <circle cx="1042.18" cy="1560.04" r="18.728" style="fill:rgb(65,65,65);"/>
        </g>
        <g transform="matrix(0,1.18044,-1.18044,0,3769.39,-98.8512)">
            <circle cx="1042.18" cy="1560.04" r="18.728" style="fill:rgb(65,65,65);"/>
        </g>
        <g transform="matrix(0,1.18044,-1.18044,0,3769.39,-45.4431)">
            <circle cx="1042.18" cy="1560.04" r="18.728" style="fill:rgb(237,0,9);"/>
        </g>
        <g transform="matrix(0,1.18044,-1.18044,0,3769.39,5.79033)">
            <circle cx="1042.18" cy="1560.04" r="18.728" style="fill:rgb(65,65,65);"/>
        </g>
        <g transform="matrix(0,1.18044,-1.18044,0,3769.39,59.1984)">
            <circle cx="1042.18" cy="1560.04" r="18.728" style="fill:rgb(237,0,9);"/>
        </g>
        <g transform="matrix(0,1.18044,-1.18044,0,3769.39,112.607)">
            <circle cx="1042.18" cy="1560.04" r="18.728" style="fill:rgb(237,0,9);"/>
        </g>
        <g transform="matrix(0,1.18044,-1.18044,0,4040.44,-205.667)">
            <circle cx="1042.18" cy="1560.04" r="18.728" style="fill:rgb(65,65,65);"/>
        </g>
        <g transform="matrix(0,1.18044,-1.18044,0,3769.39,166.015)">
            <circle cx="1042.18" cy="1560.04" r="18.728" style="fill:rgb(65,65,65);"/>
        </g>
        <g transform="matrix(0,1.18044,-1.18044,0,4040.44,-152.259)">
            <circle cx="1042.18" cy="1560.04" r="18.728" style="fill:rgb(237,0,9);"/>
        </g>
        <g transform="matrix(0,1.18044,-1.18044,0,4040.44,-98.8512)">
            <circle cx="1042.18" cy="1560.04" r="18.728" style="fill:rgb(237,0,9);"/>
        </g>
        <g transform="matrix(0,1.18044,-1.18044,0,4040.44,-45.4431)">
            <circle cx="1042.18" cy="1560.04" r="18.728" style="fill:rgb(237,0,9);"/>
        </g>
        <g transform="matrix(0,1.18044,-1.18044,0,4040.44,5.79033)">
            <circle cx="1042.18" cy="1560.04" r="18.728" style="fill:rgb(237,0,9);"/>
        </g>
        <g transform="matrix(0,1.18044,-1.18044,0,4040.44,59.1984)">
            <circle cx="1042.18" cy="1560.04" r="18.728" style="fill:rgb(237,0,9);"/>
        </g>
        <g transform="matrix(0,1.18044,-1.18044,0,4040.44,112.607)">
            <circle cx="1042.18" cy="1560.04" r="18.728" style="fill:rgb(65,65,65);"/>
        </g>
        <g transform="matrix(0,1.18044,-1.18044,0,4040.44,166.015)">
            <circle cx="1042.18" cy="1560.04" r="18.728" style="fill:rgb(65,65,65);"/>
        </g>
        <g transform="matrix(0,1.18044,-1.18044,0,3823.6,-205.667)">
            <circle cx="1042.18" cy="1560.04" r="18.728" style="fill:rgb(65,65,65);"/>
        </g>
        <g transform="matrix(0,1.18044,-1.18044,0,3823.6,-152.259)">
            <circle cx="1042.18" cy="1560.04" r="18.728" style="fill:rgb(65,65,65);"/>
        </g>
        <g transform="matrix(0,1.18044,-1.18044,0,3823.6,-98.8512)">
            <circle cx="1042.18" cy="1560.04" r="18.728" style="fill:rgb(237,0,9);"/>
        </g>
        <g transform="matrix(0,1.18044,-1.18044,0,3823.6,-45.4431)">
            <circle cx="1042.18" cy="1560.04" r="18.728" style="fill:rgb(65,65,65);"/>
        </g>
        <g transform="matrix(0,1.18044,-1.18044,0,3823.6,5.79033)">
            <circle cx="1042.18" cy="1560.04" r="18.728" style="fill:rgb(237,0,9);"/>
        </g>
        <g transform="matrix(0,1.18044,-1.18044,0,3823.6,59.1984)">
            <circle cx="1042.18" cy="1560.04" r="18.728" style="fill:rgb(237,0,9);"/>
        </g>
        <g transform="matrix(0,1.18044,-1.18044,0,3823.6,112.607)">
            <circle cx="1042.18" cy="1560.04" r="18.728" style="fill:rgb(237,0,9);"/>
        </g>
        <g transform="matrix(0,1.18044,-1.18044,0,3823.6,166.015)">
            <circle cx="1042.18" cy="1560.04" r="18.728" style="fill:rgb(65,65,65);"/>
        </g>
        <g transform="matrix(0,1.18044,-1.18044,0,3932.01,-205.667)">
            <circle cx="1042.18" cy="1560.04" r="18.728" style="fill:rgb(65,65,65);"/>
        </g>
        <g transform="matrix(0,1.18044,-1.18044,0,3932.01,-152.259)">
            <circle cx="1042.18" cy="1560.04" r="18.728" style="fill:rgb(237,0,9);"/>
        </g>
        <g transform="matrix(0,1.18044,-1.18044,0,3932.01,-98.8512)">
            <circle cx="1042.18" cy="1560.04" r="18.728" style="fill:rgb(65,65,65);"/>
        </g>
        <g transform="matrix(0,1.18044,-1.18044,0,3932.01,-45.4431)">
            <circle cx="1042.18" cy="1560.04" r="18.728" style="fill:rgb(237,0,9);"/>
        </g>
        <g transform="matrix(0,1.18044,-1.18044,0,3932.01,5.79033)">
            <circle cx="1042.18" cy="1560.04" r="18.728" style="fill:rgb(237,0,9);"/>
        </g>
        <g transform="matrix(0,1.18044,-1.18044,0,3932.01,59.1984)">
            <circle cx="1042.18" cy="1560.04" r="18.728" style="fill:rgb(237,0,9);"/>
        </g>
        <g transform="matrix(0,1.18044,-1.18044,0,3932.01,112.607)">
            <circle cx="1042.18" cy="1560.04" r="18.728" style="fill:rgb(237,0,9);"/>
        </g>
        <g transform="matrix(0,1.18044,-1.18044,0,3932.01,166.015)">
            <circle cx="1042.18" cy="1560.04" r="18.728" style="fill:rgb(65,65,65);"/>
        </g>
        <g transform="matrix(0,1.18044,-1.18044,0,3715.17,-205.667)">
            <circle cx="1042.18" cy="1560.04" r="18.728" style="fill:rgb(65,65,65);"/>
        </g>
        <g transform="matrix(0,1.18044,-1.18044,0,3715.17,-152.259)">
            <circle cx="1042.18" cy="1560.04" r="18.728" style="fill:rgb(65,65,65);"/>
        </g>
        <g transform="matrix(0,1.18044,-1.18044,0,3715.17,-98.8512)">
            <circle cx="1042.18" cy="1560.04" r="18.728" style="fill:rgb(65,65,65);"/>
        </g>
        <g transform="matrix(0,1.18044,-1.18044,0,3715.17,-45.4431)">
            <circle cx="1042.18" cy="1560.04" r="18.728" style="fill:rgb(65,65,65);"/>
        </g>
        <g transform="matrix(0,1.18044,-1.18044,0,3715.17,5.79033)">
            <circle cx="1042.18" cy="1560.04" r="18.728" style="fill:rgb(237,0,9);"/>
        </g>
        <g transform="matrix(0,1.18044,-1.18044,0,3715.17,59.1984)">
            <circle cx="1042.18" cy="1560.04" r="18.728" style="fill:rgb(237,0,9);"/>
        </g>
        <g transform="matrix(0,1.18044,-1.18044,0,3715.17,112.607)">
            <circle cx="1042.18" cy="1560.04" r="18.728" style="fill:rgb(65,65,65);"/>
        </g>
        <g transform="matrix(0,1.18044,-1.18044,0,3715.17,166.015)">
            <circle cx="1042.18" cy="1560.04" r="18.728" style="fill:rgb(65,65,65);"/>
        </g>
    </g>
</svg>
