<?xml version="1.0" encoding="UTF-8" standalone="no"?>
<!DOCTYPE svg PUBLIC "-//W3C//DTD SVG 1.1//EN" "http://www.w3.org/Graphics/SVG/1.1/DTD/svg11.dtd">
<svg width="100%" height="100%" viewBox="0 0 456 456" version="1.1" xmlns="http://www.w3.org/2000/svg" xmlns:xlink="http://www.w3.org/1999/xlink" xml:space="preserve" xmlns:serif="http://www.serif.com/" style="fill-rule:evenodd;clip-rule:evenodd;stroke-linecap:round;stroke-linejoin:round;stroke-miterlimit:1.5;">
    <g transform="matrix(1,0,0,1,-189.395,-1571.69)">
        <g transform="matrix(-1.11022e-16,1.09029,-1.09029,-1.11022e-16,2325.48,450.848)">
            <rect x="1030.88" y="1544.66" width="411.65" height="411.65" style="stroke:black;stroke-width:5.73px;"/>
        </g>
        <g transform="matrix(0,1.18044,-1.18044,0,2448.2,383.152)">
            <circle cx="1042.18" cy="1560.04" r="18.728" style="fill:rgb(65,65,65);"/>
        </g>
        <g transform="matrix(0,1.18044,-1.18044,0,2448.2,436.56)">
            <circle cx="1042.18" cy="1560.04" r="18.728" style="fill:rgb(65,65,65);"/>
        </g>
        <g transform="matrix(0,1.18044,-1.18044,0,2448.2,489.968)">
            <circle cx="1042.18" cy="1560.04" r="18.728" style="fill:rgb(65,65,65);"/>
        </g>
        <g transform="matrix(0,1.18044,-1.18044,0,2448.2,543.376)">
            <circle cx="1042.18" cy="1560.04" r="18.728" style="fill:rgb(65,65,65);"/>
        </g>
        <g transform="matrix(0,1.18044,-1.18044,0,2448.2,594.609)">
            <circle cx="1042.18" cy="1560.04" r="18.728" style="fill:rgb(65,65,65);"/>
        </g>
        <g transform="matrix(0,1.18044,-1.18044,0,2448.2,648.017)">
            <circle cx="1042.18" cy="1560.04" r="18.728" style="fill:rgb(65,65,65);"/>
        </g>
        <g transform="matrix(0,1.18044,-1.18044,0,2448.2,701.425)">
            <circle cx="1042.18" cy="1560.04" r="18.728" style="fill:rgb(237,0,9);"/>
        </g>
        <g transform="matrix(0,1.18044,-1.18044,0,2448.2,754.834)">
            <circle cx="1042.18" cy="1560.04" r="18.728" style="fill:rgb(65,65,65);"/>
        </g>
        <g transform="matrix(0,1.18044,-1.18044,0,2231.36,383.152)">
            <circle cx="1042.18" cy="1560.04" r="18.728" style="fill:rgb(237,0,9);"/>
        </g>
        <g transform="matrix(0,1.18044,-1.18044,0,2231.36,436.56)">
            <circle cx="1042.18" cy="1560.04" r="18.728" style="fill:rgb(65,65,65);"/>
        </g>
        <g transform="matrix(0,1.18044,-1.18044,0,2231.36,489.968)">
            <circle cx="1042.18" cy="1560.04" r="18.728" style="fill:rgb(237,0,9);"/>
        </g>
        <g transform="matrix(0,1.18044,-1.18044,0,2231.36,543.376)">
            <circle cx="1042.18" cy="1560.04" r="18.728" style="fill:rgb(237,0,9);"/>
        </g>
        <g transform="matrix(0,1.18044,-1.18044,0,2231.36,594.609)">
            <circle cx="1042.18" cy="1560.04" r="18.728" style="fill:rgb(237,0,9);"/>
        </g>
        <g transform="matrix(0,1.18044,-1.18044,0,2231.36,648.017)">
            <circle cx="1042.18" cy="1560.04" r="18.728" style="fill:rgb(237,0,9);"/>
        </g>
        <g transform="matrix(0,1.18044,-1.18044,0,2231.36,701.425)">
            <circle cx="1042.18" cy="1560.04" r="18.728" style="fill:rgb(237,0,9);"/>
        </g>
        <g transform="matrix(0,1.18044,-1.18044,0,2231.36,754.834)">
            <circle cx="1042.18" cy="1560.04" r="18.728" style="fill:rgb(237,0,9);"/>
        </g>
        <g transform="matrix(0,1.18044,-1.18044,0,2339.77,383.152)">
            <circle cx="1042.18" cy="1560.04" r="18.728" style="fill:rgb(65,65,65);"/>
        </g>
        <g transform="matrix(0,1.18044,-1.18044,0,2339.77,436.56)">
            <circle cx="1042.18" cy="1560.04" r="18.728" style="fill:rgb(237,0,9);"/>
        </g>
        <g transform="matrix(0,1.18044,-1.18044,0,2339.77,489.968)">
            <circle cx="1042.18" cy="1560.04" r="18.728" style="fill:rgb(237,0,9);"/>
        </g>
        <g transform="matrix(0,1.18044,-1.18044,0,2339.77,543.376)">
            <circle cx="1042.18" cy="1560.04" r="18.728" style="fill:rgb(237,0,9);"/>
        </g>
        <g transform="matrix(0,1.18044,-1.18044,0,2339.77,594.609)">
            <circle cx="1042.18" cy="1560.04" r="18.728" style="fill:rgb(237,0,9);"/>
        </g>
        <g transform="matrix(0,1.18044,-1.18044,0,2339.77,648.017)">
            <circle cx="1042.18" cy="1560.04" r="18.728" style="fill:rgb(237,0,9);"/>
        </g>
        <g transform="matrix(0,1.18044,-1.18044,0,2339.77,701.425)">
            <circle cx="1042.18" cy="1560.04" r="18.728" style="fill:rgb(237,0,9);"/>
        </g>
        <g transform="matrix(0,1.18044,-1.18044,0,2339.77,754.834)">
            <circle cx="1042.18" cy="1560.04" r="18.728" style="fill:rgb(65,65,65);"/>
        </g>
        <g transform="matrix(0,1.18044,-1.18044,0,2122.93,383.152)">
            <circle cx="1042.18" cy="1560.04" r="18.728" style="fill:rgb(65,65,65);"/>
        </g>
        <g transform="matrix(0,1.18044,-1.18044,0,2122.93,436.56)">
            <circle cx="1042.18" cy="1560.04" r="18.728" style="fill:rgb(65,65,65);"/>
        </g>
        <g transform="matrix(0,1.18044,-1.18044,0,2122.93,489.968)">
            <circle cx="1042.18" cy="1560.04" r="18.728" style="fill:rgb(237,0,9);"/>
        </g>
        <g transform="matrix(0,1.18044,-1.18044,0,2122.93,543.376)">
            <circle cx="1042.18" cy="1560.04" r="18.728" style="fill:rgb(237,0,9);"/>
        </g>
        <g transform="matrix(0,1.18044,-1.18044,0,2122.93,594.609)">
            <circle cx="1042.18" cy="1560.04" r="18.728" style="fill:rgb(237,0,9);"/>
        </g>
        <g transform="matrix(0,1.18044,-1.18044,0,2122.93,648.017)">
            <circle cx="1042.18" cy="1560.04" r="18.728" style="fill:rgb(237,0,9);"/>
        </g>
        <g transform="matrix(0,1.18044,-1.18044,0,2122.93,701.425)">
            <circle cx="1042.18" cy="1560.04" r="18.728" style="fill:rgb(237,0,9);"/>
        </g>
        <g transform="matrix(0,1.18044,-1.18044,0,2122.93,754.834)">
            <circle cx="1042.18" cy="1560.04" r="18.728" style="fill:rgb(65,65,65);"/>
        </g>
        <g transform="matrix(0,1.18044,-1.18044,0,2393.99,383.152)">
            <circle cx="1042.18" cy="1560.04" r="18.728" style="fill:rgb(65,65,65);"/>
        </g>
        <g transform="matrix(0,1.18044,-1.18044,0,2393.99,436.56)">
            <circle cx="1042.18" cy="1560.04" r="18.728" style="fill:rgb(65,65,65);"/>
        </g>
        <g transform="matrix(0,1.18044,-1.18044,0,2393.99,489.968)">
            <circle cx="1042.18" cy="1560.04" r="18.728" style="fill:rgb(237,0,9);"/>
        </g>
        <g transform="matrix(0,1.18044,-1.18044,0,2393.99,543.376)">
            <circle cx="1042.18" cy="1560.04" r="18.728" style="fill:rgb(237,0,9);"/>
        </g>
        <g transform="matrix(0,1.18044,-1.18044,0,2393.99,594.609)">
            <circle cx="1042.18" cy="1560.04" r="18.728" style="fill:rgb(237,0,9);"/>
        </g>
        <g transform="matrix(0,1.18044,-1.18044,0,2393.99,648.017)">
            <circle cx="1042.18" cy="1560.04" r="18.728" style="fill:rgb(237,0,9);"/>
        </g>
        <g transform="matrix(0,1.18044,-1.18044,0,2393.99,701.425)">
            <circle cx="1042.18" cy="1560.04" r="18.728" style="fill:rgb(237,0,9);"/>
        </g>
        <g transform="matrix(0,1.18044,-1.18044,0,2393.99,754.834)">
            <circle cx="1042.18" cy="1560.04" r="18.728" style="fill:rgb(65,65,65);"/>
        </g>
        <g transform="matrix(0,1.18044,-1.18044,0,2177.15,383.152)">
            <circle cx="1042.18" cy="1560.04" r="18.728" style="fill:rgb(65,65,65);"/>
        </g>
        <g transform="matrix(0,1.18044,-1.18044,0,2177.15,436.56)">
            <circle cx="1042.18" cy="1560.04" r="18.728" style="fill:rgb(237,0,9);"/>
        </g>
        <g transform="matrix(0,1.18044,-1.18044,0,2177.15,489.968)">
            <circle cx="1042.18" cy="1560.04" r="18.728" style="fill:rgb(65,65,65);"/>
        </g>
        <g transform="matrix(0,1.18044,-1.18044,0,2177.15,543.376)">
            <circle cx="1042.18" cy="1560.04" r="18.728" style="fill:rgb(65,65,65);"/>
        </g>
        <g transform="matrix(0,1.18044,-1.18044,0,2177.15,594.609)">
            <circle cx="1042.18" cy="1560.04" r="18.728" style="fill:rgb(65,65,65);"/>
        </g>
        <g transform="matrix(0,1.18044,-1.18044,0,2177.15,648.017)">
            <circle cx="1042.18" cy="1560.04" r="18.728" style="fill:rgb(65,65,65);"/>
        </g>
        <g transform="matrix(0,1.18044,-1.18044,0,2177.15,701.425)">
            <circle cx="1042.18" cy="1560.04" r="18.728" style="fill:rgb(237,0,9);"/>
        </g>
        <g transform="matrix(0,1.18044,-1.18044,0,2177.15,754.834)">
            <circle cx="1042.18" cy="1560.04" r="18.728" style="fill:rgb(65,65,65);"/>
        </g>
        <g transform="matrix(0,1.18044,-1.18044,0,2285.56,383.152)">
            <circle cx="1042.18" cy="1560.04" r="18.728" style="fill:rgb(237,0,9);"/>
        </g>
        <g transform="matrix(0,1.18044,-1.18044,0,2285.56,436.56)">
            <circle cx="1042.18" cy="1560.04" r="18.728" style="fill:rgb(237,0,9);"/>
        </g>
        <g transform="matrix(0,1.18044,-1.18044,0,2285.56,489.968)">
            <circle cx="1042.18" cy="1560.04" r="18.728" style="fill:rgb(237,0,9);"/>
        </g>
        <g transform="matrix(0,1.18044,-1.18044,0,2285.56,543.376)">
            <circle cx="1042.18" cy="1560.04" r="18.728" style="fill:rgb(237,0,9);"/>
        </g>
        <g transform="matrix(0,1.18044,-1.18044,0,2285.56,594.609)">
            <circle cx="1042.18" cy="1560.04" r="18.728" style="fill:rgb(237,0,9);"/>
        </g>
        <g transform="matrix(0,1.18044,-1.18044,0,2285.56,648.017)">
            <circle cx="1042.18" cy="1560.04" r="18.728" style="fill:rgb(237,0,9);"/>
        </g>
        <g transform="matrix(0,1.18044,-1.18044,0,2285.56,701.425)">
            <circle cx="1042.18" cy="1560.04" r="18.728" style="fill:rgb(237,0,9);"/>
        </g>
        <g transform="matrix(0,1.18044,-1.18044,0,2285.56,754.834)">
            <circle cx="1042.18" cy="1560.04" r="18.728" style="fill:rgb(237,0,9);"/>
        </g>
        <g transform="matrix(0,1.18044,-1.18044,0,2068.72,383.152)">
            <circle cx="1042.18" cy="1560.04" r="18.728" style="fill:rgb(65,65,65);"/>
        </g>
        <g transform="matrix(0,1.18044,-1.18044,0,2068.72,436.56)">
            <circle cx="1042.18" cy="1560.04" r="18.728" style="fill:rgb(65,65,65);"/>
        </g>
        <g transform="matrix(0,1.18044,-1.18044,0,2068.72,489.968)">
            <circle cx="1042.18" cy="1560.04" r="18.728" style="fill:rgb(65,65,65);"/>
        </g>
        <g transform="matrix(0,1.18044,-1.18044,0,2068.72,543.376)">
            <circle cx="1042.18" cy="1560.04" r="18.728" style="fill:rgb(65,65,65);"/>
        </g>
        <g transform="matrix(0,1.18044,-1.18044,0,2068.72,594.609)">
            <circle cx="1042.18" cy="1560.04" r="18.728" style="fill:rgb(65,65,65);"/>
        </g>
        <g transform="matrix(0,1.18044,-1.18044,0,2068.72,648.017)">
            <circle cx="1042.18" cy="1560.04" r="18.728" style="fill:rgb(65,65,65);"/>
        </g>
        <g transform="matrix(0,1.18044,-1.18044,0,2068.72,701.425)">
            <circle cx="1042.18" cy="1560.04" r="18.728" style="fill:rgb(237,0,9);"/>
        </g>
        <g transform="matrix(0,1.18044,-1.18044,0,2068.72,754.834)">
            <circle cx="1042.18" cy="1560.04" r="18.728" style="fill:rgb(65,65,65);"/>
        </g>
    </g>
</svg>
