<?xml version="1.0" encoding="UTF-8" standalone="no"?>
<!DOCTYPE svg PUBLIC "-//W3C//DTD SVG 1.1//EN" "http://www.w3.org/Graphics/SVG/1.1/DTD/svg11.dtd">
<svg width="100%" height="100%" viewBox="0 0 456 456" version="1.1" xmlns="http://www.w3.org/2000/svg" xmlns:xlink="http://www.w3.org/1999/xlink" xml:space="preserve" xmlns:serif="http://www.serif.com/" style="fill-rule:evenodd;clip-rule:evenodd;stroke-linecap:round;stroke-linejoin:round;stroke-miterlimit:1.5;">
    <g transform="matrix(1,0,0,1,-189.395,-2170.51)">
        <g transform="matrix(-1.11022e-16,1.09029,-1.09029,-1.11022e-16,2325.48,1049.67)">
            <rect x="1030.88" y="1544.66" width="411.65" height="411.65" style="stroke:black;stroke-width:5.73px;"/>
        </g>
        <g transform="matrix(0,1.18044,-1.18044,0,2448.2,981.97)">
            <circle cx="1042.18" cy="1560.04" r="18.728" style="fill:rgb(65,65,65);"/>
        </g>
        <g transform="matrix(0,1.18044,-1.18044,0,2448.2,1035.38)">
            <circle cx="1042.18" cy="1560.04" r="18.728" style="fill:rgb(65,65,65);"/>
        </g>
        <g transform="matrix(0,1.18044,-1.18044,0,2448.2,1088.79)">
            <circle cx="1042.18" cy="1560.04" r="18.728" style="fill:rgb(237,0,9);"/>
        </g>
        <g transform="matrix(0,1.18044,-1.18044,0,2448.2,1142.19)">
            <circle cx="1042.18" cy="1560.04" r="18.728" style="fill:rgb(237,0,9);"/>
        </g>
        <g transform="matrix(0,1.18044,-1.18044,0,2448.2,1193.43)">
            <circle cx="1042.18" cy="1560.04" r="18.728" style="fill:rgb(237,0,9);"/>
        </g>
        <g transform="matrix(0,1.18044,-1.18044,0,2448.2,1246.84)">
            <circle cx="1042.18" cy="1560.04" r="18.728" style="fill:rgb(65,65,65);"/>
        </g>
        <g transform="matrix(0,1.18044,-1.18044,0,2448.2,1300.24)">
            <circle cx="1042.18" cy="1560.04" r="18.728" style="fill:rgb(65,65,65);"/>
        </g>
        <g transform="matrix(0,1.18044,-1.18044,0,2448.2,1353.65)">
            <circle cx="1042.18" cy="1560.04" r="18.728" style="fill:rgb(65,65,65);"/>
        </g>
        <g transform="matrix(0,1.18044,-1.18044,0,2231.36,981.97)">
            <circle cx="1042.18" cy="1560.04" r="18.728" style="fill:rgb(65,65,65);"/>
        </g>
        <g transform="matrix(0,1.18044,-1.18044,0,2231.36,1035.38)">
            <circle cx="1042.18" cy="1560.04" r="18.728" style="fill:rgb(65,65,65);"/>
        </g>
        <g transform="matrix(0,1.18044,-1.18044,0,2231.36,1088.79)">
            <circle cx="1042.18" cy="1560.04" r="18.728" style="fill:rgb(237,0,9);"/>
        </g>
        <g transform="matrix(0,1.18044,-1.18044,0,2231.36,1142.19)">
            <circle cx="1042.18" cy="1560.04" r="18.728" style="fill:rgb(65,65,65);"/>
        </g>
        <g transform="matrix(0,1.18044,-1.18044,0,2231.36,1193.43)">
            <circle cx="1042.18" cy="1560.04" r="18.728" style="fill:rgb(237,0,9);"/>
        </g>
        <g transform="matrix(0,1.18044,-1.18044,0,2231.36,1246.84)">
            <circle cx="1042.18" cy="1560.04" r="18.728" style="fill:rgb(237,0,9);"/>
        </g>
        <g transform="matrix(0,1.18044,-1.18044,0,2231.36,1300.24)">
            <circle cx="1042.18" cy="1560.04" r="18.728" style="fill:rgb(237,0,9);"/>
        </g>
        <g transform="matrix(0,1.18044,-1.18044,0,2231.36,1353.65)">
            <circle cx="1042.18" cy="1560.04" r="18.728" style="fill:rgb(237,0,9);"/>
        </g>
        <g transform="matrix(0,1.18044,-1.18044,0,2339.77,981.97)">
            <circle cx="1042.18" cy="1560.04" r="18.728" style="fill:rgb(237,0,9);"/>
        </g>
        <g transform="matrix(0,1.18044,-1.18044,0,2339.77,1035.38)">
            <circle cx="1042.18" cy="1560.04" r="18.728" style="fill:rgb(65,65,65);"/>
        </g>
        <g transform="matrix(0,1.18044,-1.18044,0,2339.77,1088.79)">
            <circle cx="1042.18" cy="1560.04" r="18.728" style="fill:rgb(237,0,9);"/>
        </g>
        <g transform="matrix(0,1.18044,-1.18044,0,2339.77,1142.19)">
            <circle cx="1042.18" cy="1560.04" r="18.728" style="fill:rgb(237,0,9);"/>
        </g>
        <g transform="matrix(0,1.18044,-1.18044,0,2339.77,1193.43)">
            <circle cx="1042.18" cy="1560.04" r="18.728" style="fill:rgb(237,0,9);"/>
        </g>
        <g transform="matrix(0,1.18044,-1.18044,0,2339.77,1246.84)">
            <circle cx="1042.18" cy="1560.04" r="18.728" style="fill:rgb(237,0,9);"/>
        </g>
        <g transform="matrix(0,1.18044,-1.18044,0,2339.77,1300.24)">
            <circle cx="1042.18" cy="1560.04" r="18.728" style="fill:rgb(237,0,9);"/>
        </g>
        <g transform="matrix(0,1.18044,-1.18044,0,2339.77,1353.65)">
            <circle cx="1042.18" cy="1560.04" r="18.728" style="fill:rgb(65,65,65);"/>
        </g>
        <g transform="matrix(0,1.18044,-1.18044,0,2122.93,981.97)">
            <circle cx="1042.18" cy="1560.04" r="18.728" style="fill:rgb(65,65,65);"/>
        </g>
        <g transform="matrix(0,1.18044,-1.18044,0,2122.93,1035.38)">
            <circle cx="1042.18" cy="1560.04" r="18.728" style="fill:rgb(65,65,65);"/>
        </g>
        <g transform="matrix(0,1.18044,-1.18044,0,2122.93,1088.79)">
            <circle cx="1042.18" cy="1560.04" r="18.728" style="fill:rgb(65,65,65);"/>
        </g>
        <g transform="matrix(0,1.18044,-1.18044,0,2122.93,1142.19)">
            <circle cx="1042.18" cy="1560.04" r="18.728" style="fill:rgb(65,65,65);"/>
        </g>
        <g transform="matrix(0,1.18044,-1.18044,0,2122.93,1193.43)">
            <circle cx="1042.18" cy="1560.04" r="18.728" style="fill:rgb(237,0,9);"/>
        </g>
        <g transform="matrix(0,1.18044,-1.18044,0,2122.93,1246.84)">
            <circle cx="1042.18" cy="1560.04" r="18.728" style="fill:rgb(65,65,65);"/>
        </g>
        <g transform="matrix(0,1.18044,-1.18044,0,2122.93,1300.24)">
            <circle cx="1042.18" cy="1560.04" r="18.728" style="fill:rgb(237,0,9);"/>
        </g>
        <g transform="matrix(0,1.18044,-1.18044,0,2122.93,1353.65)">
            <circle cx="1042.18" cy="1560.04" r="18.728" style="fill:rgb(65,65,65);"/>
        </g>
        <g transform="matrix(0,1.18044,-1.18044,0,2393.99,981.97)">
            <circle cx="1042.18" cy="1560.04" r="18.728" style="fill:rgb(65,65,65);"/>
        </g>
        <g transform="matrix(0,1.18044,-1.18044,0,2393.99,1035.38)">
            <circle cx="1042.18" cy="1560.04" r="18.728" style="fill:rgb(237,0,9);"/>
        </g>
        <g transform="matrix(0,1.18044,-1.18044,0,2393.99,1088.79)">
            <circle cx="1042.18" cy="1560.04" r="18.728" style="fill:rgb(237,0,9);"/>
        </g>
        <g transform="matrix(0,1.18044,-1.18044,0,2393.99,1142.19)">
            <circle cx="1042.18" cy="1560.04" r="18.728" style="fill:rgb(237,0,9);"/>
        </g>
        <g transform="matrix(0,1.18044,-1.18044,0,2393.99,1193.43)">
            <circle cx="1042.18" cy="1560.04" r="18.728" style="fill:rgb(237,0,9);"/>
        </g>
        <g transform="matrix(0,1.18044,-1.18044,0,2393.99,1246.84)">
            <circle cx="1042.18" cy="1560.04" r="18.728" style="fill:rgb(237,0,9);"/>
        </g>
        <g transform="matrix(0,1.18044,-1.18044,0,2393.99,1300.24)">
            <circle cx="1042.18" cy="1560.04" r="18.728" style="fill:rgb(65,65,65);"/>
        </g>
        <g transform="matrix(0,1.18044,-1.18044,0,2393.99,1353.65)">
            <circle cx="1042.18" cy="1560.04" r="18.728" style="fill:rgb(65,65,65);"/>
        </g>
        <g transform="matrix(0,1.18044,-1.18044,0,2177.15,981.97)">
            <circle cx="1042.18" cy="1560.04" r="18.728" style="fill:rgb(65,65,65);"/>
        </g>
        <g transform="matrix(0,1.18044,-1.18044,0,2177.15,1035.38)">
            <circle cx="1042.18" cy="1560.04" r="18.728" style="fill:rgb(65,65,65);"/>
        </g>
        <g transform="matrix(0,1.18044,-1.18044,0,2177.15,1088.79)">
            <circle cx="1042.18" cy="1560.04" r="18.728" style="fill:rgb(65,65,65);"/>
        </g>
        <g transform="matrix(0,1.18044,-1.18044,0,2177.15,1142.19)">
            <circle cx="1042.18" cy="1560.04" r="18.728" style="fill:rgb(237,0,9);"/>
        </g>
        <g transform="matrix(0,1.18044,-1.18044,0,2177.15,1193.43)">
            <circle cx="1042.18" cy="1560.04" r="18.728" style="fill:rgb(65,65,65);"/>
        </g>
        <g transform="matrix(0,1.18044,-1.18044,0,2177.15,1246.84)">
            <circle cx="1042.18" cy="1560.04" r="18.728" style="fill:rgb(237,0,9);"/>
        </g>
        <g transform="matrix(0,1.18044,-1.18044,0,2177.15,1300.24)">
            <circle cx="1042.18" cy="1560.04" r="18.728" style="fill:rgb(237,0,9);"/>
        </g>
        <g transform="matrix(0,1.18044,-1.18044,0,2177.15,1353.65)">
            <circle cx="1042.18" cy="1560.04" r="18.728" style="fill:rgb(237,0,9);"/>
        </g>
        <g transform="matrix(0,1.18044,-1.18044,0,2285.56,981.97)">
            <circle cx="1042.18" cy="1560.04" r="18.728" style="fill:rgb(65,65,65);"/>
        </g>
        <g transform="matrix(0,1.18044,-1.18044,0,2285.56,1035.38)">
            <circle cx="1042.18" cy="1560.04" r="18.728" style="fill:rgb(237,0,9);"/>
        </g>
        <g transform="matrix(0,1.18044,-1.18044,0,2285.56,1088.79)">
            <circle cx="1042.18" cy="1560.04" r="18.728" style="fill:rgb(65,65,65);"/>
        </g>
        <g transform="matrix(0,1.18044,-1.18044,0,2285.56,1142.19)">
            <circle cx="1042.18" cy="1560.04" r="18.728" style="fill:rgb(237,0,9);"/>
        </g>
        <g transform="matrix(0,1.18044,-1.18044,0,2285.56,1193.43)">
            <circle cx="1042.18" cy="1560.04" r="18.728" style="fill:rgb(237,0,9);"/>
        </g>
        <g transform="matrix(0,1.18044,-1.18044,0,2285.56,1246.84)">
            <circle cx="1042.18" cy="1560.04" r="18.728" style="fill:rgb(237,0,9);"/>
        </g>
        <g transform="matrix(0,1.18044,-1.18044,0,2285.56,1300.24)">
            <circle cx="1042.18" cy="1560.04" r="18.728" style="fill:rgb(237,0,9);"/>
        </g>
        <g transform="matrix(0,1.18044,-1.18044,0,2285.56,1353.65)">
            <circle cx="1042.18" cy="1560.04" r="18.728" style="fill:rgb(237,0,9);"/>
        </g>
        <g transform="matrix(0,1.18044,-1.18044,0,2068.72,981.97)">
            <circle cx="1042.18" cy="1560.04" r="18.728" style="fill:rgb(65,65,65);"/>
        </g>
        <g transform="matrix(0,1.18044,-1.18044,0,2068.72,1035.38)">
            <circle cx="1042.18" cy="1560.04" r="18.728" style="fill:rgb(65,65,65);"/>
        </g>
        <g transform="matrix(0,1.18044,-1.18044,0,2068.72,1088.79)">
            <circle cx="1042.18" cy="1560.04" r="18.728" style="fill:rgb(65,65,65);"/>
        </g>
        <g transform="matrix(0,1.18044,-1.18044,0,2068.72,1142.19)">
            <circle cx="1042.18" cy="1560.04" r="18.728" style="fill:rgb(65,65,65);"/>
        </g>
        <g transform="matrix(0,1.18044,-1.18044,0,2068.72,1193.43)">
            <circle cx="1042.18" cy="1560.04" r="18.728" style="fill:rgb(65,65,65);"/>
        </g>
        <g transform="matrix(0,1.18044,-1.18044,0,2068.72,1246.84)">
            <circle cx="1042.18" cy="1560.04" r="18.728" style="fill:rgb(237,0,9);"/>
        </g>
        <g transform="matrix(0,1.18044,-1.18044,0,2068.72,1300.24)">
            <circle cx="1042.18" cy="1560.04" r="18.728" style="fill:rgb(65,65,65);"/>
        </g>
        <g transform="matrix(0,1.18044,-1.18044,0,2068.72,1353.65)">
            <circle cx="1042.18" cy="1560.04" r="18.728" style="fill:rgb(65,65,65);"/>
        </g>
    </g>
</svg>
