<?xml version="1.0" encoding="UTF-8" standalone="no"?>
<!DOCTYPE svg PUBLIC "-//W3C//DTD SVG 1.1//EN" "http://www.w3.org/Graphics/SVG/1.1/DTD/svg11.dtd">
<svg width="100%" height="100%" viewBox="0 0 456 456" version="1.1" xmlns="http://www.w3.org/2000/svg" xmlns:xlink="http://www.w3.org/1999/xlink" xml:space="preserve" xmlns:serif="http://www.serif.com/" style="fill-rule:evenodd;clip-rule:evenodd;stroke-linecap:round;stroke-linejoin:round;stroke-miterlimit:1.5;">
    <g transform="matrix(1,0,0,1,-738.214,-2170.51)">
        <g transform="matrix(-1.11022e-16,1.09029,-1.09029,-1.11022e-16,2874.3,1049.67)">
            <rect x="1030.88" y="1544.66" width="411.65" height="411.65" style="stroke:black;stroke-width:5.73px;"/>
        </g>
        <g transform="matrix(0,1.18044,-1.18044,0,2997.02,981.97)">
            <circle cx="1042.18" cy="1560.04" r="18.728" style="fill:rgb(65,65,65);"/>
        </g>
        <g transform="matrix(0,1.18044,-1.18044,0,2997.02,1035.38)">
            <circle cx="1042.18" cy="1560.04" r="18.728" style="fill:rgb(65,65,65);"/>
        </g>
        <g transform="matrix(0,1.18044,-1.18044,0,2997.02,1088.79)">
            <circle cx="1042.18" cy="1560.04" r="18.728" style="fill:rgb(237,0,9);"/>
        </g>
        <g transform="matrix(0,1.18044,-1.18044,0,2997.02,1142.19)">
            <circle cx="1042.18" cy="1560.04" r="18.728" style="fill:rgb(237,0,9);"/>
        </g>
        <g transform="matrix(0,1.18044,-1.18044,0,2997.02,1193.43)">
            <circle cx="1042.18" cy="1560.04" r="18.728" style="fill:rgb(237,0,9);"/>
        </g>
        <g transform="matrix(0,1.18044,-1.18044,0,2997.02,1246.84)">
            <circle cx="1042.18" cy="1560.04" r="18.728" style="fill:rgb(237,0,9);"/>
        </g>
        <g transform="matrix(0,1.18044,-1.18044,0,2997.02,1300.24)">
            <circle cx="1042.18" cy="1560.04" r="18.728" style="fill:rgb(65,65,65);"/>
        </g>
        <g transform="matrix(0,1.18044,-1.18044,0,2997.02,1353.65)">
            <circle cx="1042.18" cy="1560.04" r="18.728" style="fill:rgb(65,65,65);"/>
        </g>
        <g transform="matrix(0,1.18044,-1.18044,0,2780.18,981.97)">
            <circle cx="1042.18" cy="1560.04" r="18.728" style="fill:rgb(237,0,9);"/>
        </g>
        <g transform="matrix(0,1.18044,-1.18044,0,2780.18,1035.38)">
            <circle cx="1042.18" cy="1560.04" r="18.728" style="fill:rgb(65,65,65);"/>
        </g>
        <g transform="matrix(0,1.18044,-1.18044,0,2780.18,1088.79)">
            <circle cx="1042.18" cy="1560.04" r="18.728" style="fill:rgb(65,65,65);"/>
        </g>
        <g transform="matrix(0,1.18044,-1.18044,0,2780.18,1142.19)">
            <circle cx="1042.18" cy="1560.04" r="18.728" style="fill:rgb(65,65,65);"/>
        </g>
        <g transform="matrix(0,1.18044,-1.18044,0,2780.18,1193.43)">
            <circle cx="1042.18" cy="1560.04" r="18.728" style="fill:rgb(65,65,65);"/>
        </g>
        <g transform="matrix(0,1.18044,-1.18044,0,2780.18,1246.84)">
            <circle cx="1042.18" cy="1560.04" r="18.728" style="fill:rgb(237,0,9);"/>
        </g>
        <g transform="matrix(0,1.18044,-1.18044,0,2780.18,1300.24)">
            <circle cx="1042.18" cy="1560.04" r="18.728" style="fill:rgb(65,65,65);"/>
        </g>
        <g transform="matrix(0,1.18044,-1.18044,0,2780.18,1353.65)">
            <circle cx="1042.18" cy="1560.04" r="18.728" style="fill:rgb(237,0,9);"/>
        </g>
        <g transform="matrix(0,1.18044,-1.18044,0,2888.59,981.97)">
            <circle cx="1042.18" cy="1560.04" r="18.728" style="fill:rgb(237,0,9);"/>
        </g>
        <g transform="matrix(0,1.18044,-1.18044,0,2888.59,1035.38)">
            <circle cx="1042.18" cy="1560.04" r="18.728" style="fill:rgb(65,65,65);"/>
        </g>
        <g transform="matrix(0,1.18044,-1.18044,0,2888.59,1088.79)">
            <circle cx="1042.18" cy="1560.04" r="18.728" style="fill:rgb(237,0,9);"/>
        </g>
        <g transform="matrix(0,1.18044,-1.18044,0,2888.59,1142.19)">
            <circle cx="1042.18" cy="1560.04" r="18.728" style="fill:rgb(65,65,65);"/>
        </g>
        <g transform="matrix(0,1.18044,-1.18044,0,2888.59,1193.43)">
            <circle cx="1042.18" cy="1560.04" r="18.728" style="fill:rgb(237,0,9);"/>
        </g>
        <g transform="matrix(0,1.18044,-1.18044,0,2888.59,1246.84)">
            <circle cx="1042.18" cy="1560.04" r="18.728" style="fill:rgb(65,65,65);"/>
        </g>
        <g transform="matrix(0,1.18044,-1.18044,0,2888.59,1300.24)">
            <circle cx="1042.18" cy="1560.04" r="18.728" style="fill:rgb(65,65,65);"/>
        </g>
        <g transform="matrix(0,1.18044,-1.18044,0,2888.59,1353.65)">
            <circle cx="1042.18" cy="1560.04" r="18.728" style="fill:rgb(237,0,9);"/>
        </g>
        <g transform="matrix(0,1.18044,-1.18044,0,2671.75,981.97)">
            <circle cx="1042.18" cy="1560.04" r="18.728" style="fill:rgb(65,65,65);"/>
        </g>
        <g transform="matrix(0,1.18044,-1.18044,0,2671.75,1035.38)">
            <circle cx="1042.18" cy="1560.04" r="18.728" style="fill:rgb(237,0,9);"/>
        </g>
        <g transform="matrix(0,1.18044,-1.18044,0,2671.75,1088.79)">
            <circle cx="1042.18" cy="1560.04" r="18.728" style="fill:rgb(65,65,65);"/>
        </g>
        <g transform="matrix(0,1.18044,-1.18044,0,2671.75,1142.19)">
            <circle cx="1042.18" cy="1560.04" r="18.728" style="fill:rgb(65,65,65);"/>
        </g>
        <g transform="matrix(0,1.18044,-1.18044,0,2671.75,1193.43)">
            <circle cx="1042.18" cy="1560.04" r="18.728" style="fill:rgb(65,65,65);"/>
        </g>
        <g transform="matrix(0,1.18044,-1.18044,0,2671.75,1246.84)">
            <circle cx="1042.18" cy="1560.04" r="18.728" style="fill:rgb(65,65,65);"/>
        </g>
        <g transform="matrix(0,1.18044,-1.18044,0,2671.75,1300.24)">
            <circle cx="1042.18" cy="1560.04" r="18.728" style="fill:rgb(237,0,9);"/>
        </g>
        <g transform="matrix(0,1.18044,-1.18044,0,2671.75,1353.65)">
            <circle cx="1042.18" cy="1560.04" r="18.728" style="fill:rgb(65,65,65);"/>
        </g>
        <g transform="matrix(0,1.18044,-1.18044,0,2942.8,981.97)">
            <circle cx="1042.18" cy="1560.04" r="18.728" style="fill:rgb(65,65,65);"/>
        </g>
        <g transform="matrix(0,1.18044,-1.18044,0,2942.8,1035.38)">
            <circle cx="1042.18" cy="1560.04" r="18.728" style="fill:rgb(237,0,9);"/>
        </g>
        <g transform="matrix(0,1.18044,-1.18044,0,2942.8,1088.79)">
            <circle cx="1042.18" cy="1560.04" r="18.728" style="fill:rgb(65,65,65);"/>
        </g>
        <g transform="matrix(0,1.18044,-1.18044,0,2942.8,1142.19)">
            <circle cx="1042.18" cy="1560.04" r="18.728" style="fill:rgb(65,65,65);"/>
        </g>
        <g transform="matrix(0,1.18044,-1.18044,0,2942.8,1193.43)">
            <circle cx="1042.18" cy="1560.04" r="18.728" style="fill:rgb(65,65,65);"/>
        </g>
        <g transform="matrix(0,1.18044,-1.18044,0,2942.8,1246.84)">
            <circle cx="1042.18" cy="1560.04" r="18.728" style="fill:rgb(65,65,65);"/>
        </g>
        <g transform="matrix(0,1.18044,-1.18044,0,2942.8,1300.24)">
            <circle cx="1042.18" cy="1560.04" r="18.728" style="fill:rgb(237,0,9);"/>
        </g>
        <g transform="matrix(0,1.18044,-1.18044,0,2942.8,1353.65)">
            <circle cx="1042.18" cy="1560.04" r="18.728" style="fill:rgb(65,65,65);"/>
        </g>
        <g transform="matrix(0,1.18044,-1.18044,0,2725.97,981.97)">
            <circle cx="1042.18" cy="1560.04" r="18.728" style="fill:rgb(237,0,9);"/>
        </g>
        <g transform="matrix(0,1.18044,-1.18044,0,2725.97,1035.38)">
            <circle cx="1042.18" cy="1560.04" r="18.728" style="fill:rgb(65,65,65);"/>
        </g>
        <g transform="matrix(0,1.18044,-1.18044,0,2725.97,1088.79)">
            <circle cx="1042.18" cy="1560.04" r="18.728" style="fill:rgb(237,0,9);"/>
        </g>
        <g transform="matrix(0,1.18044,-1.18044,0,2725.97,1142.19)">
            <circle cx="1042.18" cy="1560.04" r="18.728" style="fill:rgb(65,65,65);"/>
        </g>
        <g transform="matrix(0,1.18044,-1.18044,0,2725.97,1193.43)">
            <circle cx="1042.18" cy="1560.04" r="18.728" style="fill:rgb(237,0,9);"/>
        </g>
        <g transform="matrix(0,1.18044,-1.18044,0,2725.97,1246.84)">
            <circle cx="1042.18" cy="1560.04" r="18.728" style="fill:rgb(65,65,65);"/>
        </g>
        <g transform="matrix(0,1.18044,-1.18044,0,2725.97,1300.24)">
            <circle cx="1042.18" cy="1560.04" r="18.728" style="fill:rgb(65,65,65);"/>
        </g>
        <g transform="matrix(0,1.18044,-1.18044,0,2725.97,1353.65)">
            <circle cx="1042.18" cy="1560.04" r="18.728" style="fill:rgb(237,0,9);"/>
        </g>
        <g transform="matrix(0,1.18044,-1.18044,0,2834.38,981.97)">
            <circle cx="1042.18" cy="1560.04" r="18.728" style="fill:rgb(237,0,9);"/>
        </g>
        <g transform="matrix(0,1.18044,-1.18044,0,2834.38,1035.38)">
            <circle cx="1042.18" cy="1560.04" r="18.728" style="fill:rgb(65,65,65);"/>
        </g>
        <g transform="matrix(0,1.18044,-1.18044,0,2834.38,1088.79)">
            <circle cx="1042.18" cy="1560.04" r="18.728" style="fill:rgb(65,65,65);"/>
        </g>
        <g transform="matrix(0,1.18044,-1.18044,0,2834.38,1142.19)">
            <circle cx="1042.18" cy="1560.04" r="18.728" style="fill:rgb(65,65,65);"/>
        </g>
        <g transform="matrix(0,1.18044,-1.18044,0,2834.38,1193.43)">
            <circle cx="1042.18" cy="1560.04" r="18.728" style="fill:rgb(65,65,65);"/>
        </g>
        <g transform="matrix(0,1.18044,-1.18044,0,2834.38,1246.84)">
            <circle cx="1042.18" cy="1560.04" r="18.728" style="fill:rgb(237,0,9);"/>
        </g>
        <g transform="matrix(0,1.18044,-1.18044,0,2834.38,1300.24)">
            <circle cx="1042.18" cy="1560.04" r="18.728" style="fill:rgb(65,65,65);"/>
        </g>
        <g transform="matrix(0,1.18044,-1.18044,0,2834.38,1353.65)">
            <circle cx="1042.18" cy="1560.04" r="18.728" style="fill:rgb(237,0,9);"/>
        </g>
        <g transform="matrix(0,1.18044,-1.18044,0,2617.54,981.97)">
            <circle cx="1042.18" cy="1560.04" r="18.728" style="fill:rgb(65,65,65);"/>
        </g>
        <g transform="matrix(0,1.18044,-1.18044,0,2617.54,1035.38)">
            <circle cx="1042.18" cy="1560.04" r="18.728" style="fill:rgb(65,65,65);"/>
        </g>
        <g transform="matrix(0,1.18044,-1.18044,0,2617.54,1088.79)">
            <circle cx="1042.18" cy="1560.04" r="18.728" style="fill:rgb(237,0,9);"/>
        </g>
        <g transform="matrix(0,1.18044,-1.18044,0,2617.54,1142.19)">
            <circle cx="1042.18" cy="1560.04" r="18.728" style="fill:rgb(237,0,9);"/>
        </g>
        <g transform="matrix(0,1.18044,-1.18044,0,2617.54,1193.43)">
            <circle cx="1042.18" cy="1560.04" r="18.728" style="fill:rgb(237,0,9);"/>
        </g>
        <g transform="matrix(0,1.18044,-1.18044,0,2617.54,1246.84)">
            <circle cx="1042.18" cy="1560.04" r="18.728" style="fill:rgb(237,0,9);"/>
        </g>
        <g transform="matrix(0,1.18044,-1.18044,0,2617.54,1300.24)">
            <circle cx="1042.18" cy="1560.04" r="18.728" style="fill:rgb(65,65,65);"/>
        </g>
        <g transform="matrix(0,1.18044,-1.18044,0,2617.54,1353.65)">
            <circle cx="1042.18" cy="1560.04" r="18.728" style="fill:rgb(65,65,65);"/>
        </g>
    </g>
</svg>
